<svg width="50" height="50" viewBox="0 0 50 50" fill="none" xmlns="http://www.w3.org/2000/svg">
<circle cx="25" cy="25" r="25" fill="#1C2541"/>
<path d="M14.125 20.5C16.5412 20.5 18.5 22.4588 18.5 24.875C18.5 27.2912 16.5412 29.25 14.125 29.25C11.7088 29.25 9.75 27.2912 9.75 24.875C9.75 22.4588 11.7088 20.5 14.125 20.5Z" fill="#F2F2F2"/>
<path d="M25.375 22.25C23.9253 22.25 22.75 23.4253 22.75 24.875C22.75 26.3247 23.9253 27.5 25.375 27.5C26.8247 27.5 28 26.3247 28 24.875L29.75 24.875L29.7485 24.988C29.6886 27.352 27.7535 29.25 25.375 29.25C22.9588 29.25 21 27.2912 21 24.875L21.0015 24.762C21.0614 22.398 22.9965 20.5 25.375 20.5L25.488 20.5015C27.852 20.5614 29.75 22.4965 29.75 24.875L28 24.875C28 23.4253 26.8247 22.25 25.375 22.25Z" fill="#FF5A5F"/>
<path d="M36.9543 29.466C36.3783 29.466 35.8143 29.37 35.2623 29.178C34.7223 28.974 34.2303 28.68 33.7863 28.296C33.3543 27.912 33.0063 27.444 32.7423 26.892C32.4903 26.328 32.3643 25.692 32.3643 24.984C32.3643 24.276 32.4903 23.646 32.7423 23.094C33.0063 22.542 33.3543 22.074 33.7863 21.69C34.2183 21.306 34.7043 21.012 35.2443 20.808C35.7843 20.604 36.3423 20.502 36.9183 20.502C37.3383 20.502 37.7343 20.562 38.1063 20.682C38.4903 20.802 38.8203 20.946 39.0963 21.114C39.3723 21.282 39.5703 21.45 39.6903 21.618C39.8463 21.762 39.9783 21.9 40.0863 22.032C40.1943 22.164 40.2303 22.326 40.1943 22.518C40.1583 22.638 40.1043 22.752 40.0323 22.86C39.9603 22.956 39.8703 23.058 39.7623 23.166C39.4743 23.49 39.1923 23.61 38.9163 23.526C38.7603 23.442 38.6043 23.352 38.4483 23.256C38.2923 23.16 38.1303 23.07 37.9623 22.986C37.8063 22.89 37.6443 22.812 37.4763 22.752C37.3083 22.692 37.1223 22.662 36.9183 22.662C36.4623 22.662 36.0543 22.764 35.6943 22.968C35.3463 23.16 35.0703 23.43 34.8663 23.778C34.6743 24.126 34.5783 24.528 34.5783 24.984C34.5783 25.44 34.6743 25.848 34.8663 26.208C35.0703 26.556 35.3463 26.832 35.6943 27.036C36.0423 27.228 36.4383 27.324 36.8823 27.324C37.0983 27.324 37.3023 27.3 37.4943 27.252C37.6983 27.192 37.8783 27.12 38.0343 27.036C38.1903 26.94 38.3163 26.844 38.4123 26.748C38.5443 26.664 38.6643 26.586 38.7723 26.514C38.8803 26.442 38.9943 26.406 39.1143 26.406C39.2583 26.406 39.3963 26.46 39.5283 26.568C39.6723 26.664 39.8283 26.82 39.9963 27.036C40.1523 27.216 40.2363 27.39 40.2483 27.558C40.2723 27.726 40.2363 27.888 40.1403 28.044C40.0563 28.2 39.9123 28.344 39.7083 28.476C39.5643 28.62 39.3483 28.77 39.0603 28.926C38.7843 29.07 38.4603 29.196 38.0883 29.304C37.7283 29.412 37.3503 29.466 36.9543 29.466Z" fill="#F2F2F2"/>
</svg>
